<svg xmlns="http://www.w3.org/2000/svg" viewBox="0 0 24 16">
  <path fill="#fff" d="M0 0h24v16H0z"/>
  <path fill="#b22234" d="M0 0h24v1.23H0zm0 2.46h24v1.23H0zm0 2.46h24v1.23H0zm0 2.46h24v1.23H0zm0 2.46h24v1.23H0zm0 2.46h24v1.23H0zm0 2.46h24V16H0z"/>
  <path fill="#3c3b6e" d="M0 0h10.4v8.62H0z"/>
  <g fill="#fff">
    <circle cx="1.1" cy="1" r=".32"/><circle cx="3.1" cy="1" r=".32"/><circle cx="5.1" cy="1" r=".32"/><circle cx="7.1" cy="1" r=".32"/><circle cx="9.1" cy="1" r=".32"/>
    <circle cx="2.1" cy="2.4" r=".32"/><circle cx="4.1" cy="2.4" r=".32"/><circle cx="6.1" cy="2.4" r=".32"/><circle cx="8.1" cy="2.4" r=".32"/>
    <circle cx="1.1" cy="3.8" r=".32"/><circle cx="3.1" cy="3.8" r=".32"/><circle cx="5.1" cy="3.8" r=".32"/><circle cx="7.1" cy="3.8" r=".32"/><circle cx="9.1" cy="3.8" r=".32"/>
    <circle cx="2.1" cy="5.2" r=".32"/><circle cx="4.1" cy="5.2" r=".32"/><circle cx="6.1" cy="5.2" r=".32"/><circle cx="8.1" cy="5.2" r=".32"/>
    <circle cx="1.1" cy="6.6" r=".32"/><circle cx="3.1" cy="6.6" r=".32"/><circle cx="5.1" cy="6.6" r=".32"/><circle cx="7.1" cy="6.6" r=".32"/><circle cx="9.1" cy="6.6" r=".32"/>
  </g>
</svg>
